<svg xmlns="http://www.w3.org/2000/svg" viewBox="0 0 200 200" fill="none">
  <polygon points="100,10 180,46 180,154 100,190 20,154 20,46" fill="#0F1117" stroke="#3B82F6" stroke-width="8" stroke-linejoin="round"/>
  <circle cx="100" cy="10" r="7" fill="#3B82F6"/><circle cx="180" cy="46" r="7" fill="#3B82F6"/>
  <circle cx="180" cy="154" r="7" fill="#3B82F6"/><circle cx="100" cy="190" r="7" fill="#3B82F6"/>
  <circle cx="20" cy="154" r="7" fill="#3B82F6"/><circle cx="20" cy="46" r="7" fill="#3B82F6"/>
  <line x1="100" y1="10" x2="100" y2="60" stroke="#3B82F6" stroke-width="4" opacity="0.5"/>
  <line x1="180" y1="46" x2="145" y2="75" stroke="#3B82F6" stroke-width="4" opacity="0.5"/>
  <line x1="180" y1="154" x2="145" y2="125" stroke="#3B82F6" stroke-width="4" opacity="0.5"/>
  <line x1="100" y1="190" x2="100" y2="140" stroke="#3B82F6" stroke-width="4" opacity="0.5"/>
  <line x1="20" y1="154" x2="55" y2="125" stroke="#3B82F6" stroke-width="4" opacity="0.5"/>
  <line x1="20" y1="46" x2="55" y2="75" stroke="#3B82F6" stroke-width="4" opacity="0.5"/>
  <path d="M100 55 L140 72 V112 C140 132 122 148 100 155 C78 148 60 132 60 112 V72 Z" fill="#0F1117" stroke="#3B82F6" stroke-width="5" stroke-linejoin="round"/>
  <circle cx="100" cy="102" r="22" fill="none" stroke="#3B82F6" stroke-width="4"/>
  <path d="M100 80 Q112 90 108 102" fill="none" stroke="#3B82F6" stroke-width="3.5" stroke-linecap="round"/>
  <path d="M120 92 Q114 106 102 108" fill="none" stroke="#3B82F6" stroke-width="3.5" stroke-linecap="round"/>
  <path d="M114 118 Q102 116 94 106" fill="none" stroke="#3B82F6" stroke-width="3.5" stroke-linecap="round"/>
  <path d="M86 118 Q88 104 98 96" fill="none" stroke="#3B82F6" stroke-width="3.5" stroke-linecap="round"/>
  <path d="M80 98 Q92 88 104 94" fill="none" stroke="#3B82F6" stroke-width="3.5" stroke-linecap="round"/>
  <circle cx="100" cy="102" r="5" fill="#3B82F6" opacity="0.3"/>
  <polyline points="108,96 118,108 138,82" fill="none" stroke="#3B82F6" stroke-width="7" stroke-linecap="round" stroke-linejoin="round"/>
</svg>
