<svg xmlns="http://www.w3.org/2000/svg" viewBox="0 0 100 100" fill="none">
  <circle cx="50" cy="50" r="46" stroke="#3B82F6" stroke-width="2" opacity="0.2"/>
  <circle cx="50" cy="50" r="38" stroke="#3B82F6" stroke-width="1.5" opacity="0.1"/>
  <path d="M50 12 L78 26 V52 C78 72 66 86 50 92 C34 86 22 72 22 52 V26 Z" fill="#3B82F6" opacity="0.08"/>
  <path d="M50 12 L78 26 V52 C78 72 66 86 50 92 C34 86 22 72 22 52 V26 Z" fill="none" stroke="#3B82F6" stroke-width="2.5"/>
  <ellipse cx="50" cy="48" rx="18" ry="11" fill="none" stroke="#3B82F6" stroke-width="2"/>
  <circle cx="50" cy="48" r="6.5" fill="#3B82F6"/>
  <circle cx="50" cy="48" r="2.5" fill="#0F1117"/>
  <line x1="37" y1="66" x2="42" y2="66" stroke="#3B82F6" stroke-width="2" stroke-linecap="round"/>
  <line x1="45" y1="66" x2="55" y2="66" stroke="#3B82F6" stroke-width="2" stroke-linecap="round"/>
  <line x1="58" y1="66" x2="63" y2="66" stroke="#3B82F6" stroke-width="2" stroke-linecap="round"/>
  <line x1="40" y1="72" x2="48" y2="72" stroke="#3B82F6" stroke-width="2" stroke-linecap="round" opacity="0.5"/>
  <line x1="51" y1="72" x2="60" y2="72" stroke="#3B82F6" stroke-width="2" stroke-linecap="round" opacity="0.5"/>
  <path d="M14 30 L14 20 L24 20" fill="none" stroke="#3B82F6" stroke-width="1.5" stroke-linecap="round" opacity="0.3"/>
  <path d="M86 30 L86 20 L76 20" fill="none" stroke="#3B82F6" stroke-width="1.5" stroke-linecap="round" opacity="0.3"/>
  <path d="M14 70 L14 80 L24 80" fill="none" stroke="#3B82F6" stroke-width="1.5" stroke-linecap="round" opacity="0.3"/>
  <path d="M86 70 L86 80 L76 80" fill="none" stroke="#3B82F6" stroke-width="1.5" stroke-linecap="round" opacity="0.3"/>
</svg>
